<mxfile host="app.diagrams.net" modified="2021-12-16T02:45:09.338Z" agent="5.0 (Windows NT 10.0; Win64; x64) AppleWebKit/537.36 (KHTML, like Gecko) Chrome/96.0.4664.93 Safari/537.36" etag="7vFi8crjsoECzvKkJ8dc" version="15.8.8" type="github">
  <diagram id="C5RBs43oDa-KdzZeNtuy" name="Page-1">
    <mxGraphModel dx="1718" dy="943" grid="1" gridSize="10" guides="1" tooltips="1" connect="1" arrows="1" fold="1" page="1" pageScale="1" pageWidth="827" pageHeight="1169" math="0" shadow="0">
      <root>
        <mxCell id="WIyWlLk6GJQsqaUBKTNV-0" />
        <mxCell id="WIyWlLk6GJQsqaUBKTNV-1" parent="WIyWlLk6GJQsqaUBKTNV-0" />
        <mxCell id="VepE9303s8qAp5bbBbqC-2" style="edgeStyle=orthogonalEdgeStyle;rounded=0;orthogonalLoop=1;jettySize=auto;html=1;entryX=0.5;entryY=0;entryDx=0;entryDy=0;startArrow=diamond;startFill=0;" edge="1" parent="WIyWlLk6GJQsqaUBKTNV-1" source="w5kWeoBQfcNdfBbSgqj2-0" target="w5kWeoBQfcNdfBbSgqj2-43">
          <mxGeometry relative="1" as="geometry" />
        </mxCell>
        <mxCell id="w5kWeoBQfcNdfBbSgqj2-0" value="Model" style="swimlane;fontStyle=0;align=center;verticalAlign=top;childLayout=stackLayout;horizontal=1;startSize=26;horizontalStack=0;resizeParent=1;resizeLast=0;collapsible=1;marginBottom=0;rounded=0;shadow=0;strokeWidth=1;" parent="WIyWlLk6GJQsqaUBKTNV-1" vertex="1">
          <mxGeometry x="476" y="100" width="240" height="140" as="geometry">
            <mxRectangle x="340" y="380" width="170" height="26" as="alternateBounds" />
          </mxGeometry>
        </mxCell>
        <mxCell id="w5kWeoBQfcNdfBbSgqj2-1" value="# view: View&#xa;# controller: Controller&#xa;# state: State" style="text;align=left;verticalAlign=top;spacingLeft=4;spacingRight=4;overflow=hidden;rotatable=0;points=[[0,0.5],[1,0.5]];portConstraint=eastwest;" parent="w5kWeoBQfcNdfBbSgqj2-0" vertex="1">
          <mxGeometry y="26" width="240" height="64" as="geometry" />
        </mxCell>
        <mxCell id="w5kWeoBQfcNdfBbSgqj2-2" value="" style="line;html=1;strokeWidth=1;align=left;verticalAlign=middle;spacingTop=-1;spacingLeft=3;spacingRight=3;rotatable=0;labelPosition=right;points=[];portConstraint=eastwest;" parent="w5kWeoBQfcNdfBbSgqj2-0" vertex="1">
          <mxGeometry y="90" width="240" height="10" as="geometry" />
        </mxCell>
        <mxCell id="w5kWeoBQfcNdfBbSgqj2-5" value="+go():&amp;nbsp; starts the runtime loop&lt;br&gt;&lt;span style=&quot;white-space: pre&quot;&gt; &lt;/span&gt;&lt;span style=&quot;white-space: pre&quot;&gt; &lt;/span&gt;&lt;br&gt;&lt;span style=&quot;white-space: pre&quot;&gt; &lt;/span&gt;" style="text;align=left;verticalAlign=top;spacingLeft=4;spacingRight=4;overflow=hidden;rotatable=0;points=[[0,0.5],[1,0.5]];portConstraint=eastwest;fontStyle=0;html=1;" parent="w5kWeoBQfcNdfBbSgqj2-0" vertex="1">
          <mxGeometry y="100" width="240" height="40" as="geometry" />
        </mxCell>
        <mxCell id="w5kWeoBQfcNdfBbSgqj2-19" value="View" style="swimlane;fontStyle=0;align=center;verticalAlign=top;childLayout=stackLayout;horizontal=1;startSize=26;horizontalStack=0;resizeParent=1;resizeLast=0;collapsible=1;marginBottom=0;rounded=0;shadow=0;strokeWidth=1;" parent="WIyWlLk6GJQsqaUBKTNV-1" vertex="1">
          <mxGeometry x="166" y="190" width="240" height="90" as="geometry">
            <mxRectangle x="340" y="380" width="170" height="26" as="alternateBounds" />
          </mxGeometry>
        </mxCell>
        <mxCell id="w5kWeoBQfcNdfBbSgqj2-21" value="" style="line;html=1;strokeWidth=1;align=left;verticalAlign=middle;spacingTop=-1;spacingLeft=3;spacingRight=3;rotatable=0;labelPosition=right;points=[];portConstraint=eastwest;" parent="w5kWeoBQfcNdfBbSgqj2-19" vertex="1">
          <mxGeometry y="26" width="240" height="10" as="geometry" />
        </mxCell>
        <mxCell id="w5kWeoBQfcNdfBbSgqj2-22" value="+display(State)&lt;br&gt;&lt;span style=&quot;font-style: normal&quot;&gt;+close()&lt;/span&gt;" style="text;align=left;verticalAlign=top;spacingLeft=4;spacingRight=4;overflow=hidden;rotatable=0;points=[[0,0.5],[1,0.5]];portConstraint=eastwest;fontStyle=2;html=1;" parent="w5kWeoBQfcNdfBbSgqj2-19" vertex="1">
          <mxGeometry y="36" width="240" height="44" as="geometry" />
        </mxCell>
        <mxCell id="w5kWeoBQfcNdfBbSgqj2-23" value="Controller" style="swimlane;fontStyle=0;align=center;verticalAlign=top;childLayout=stackLayout;horizontal=1;startSize=26;horizontalStack=0;resizeParent=1;resizeLast=0;collapsible=1;marginBottom=0;rounded=0;shadow=0;strokeWidth=1;" parent="WIyWlLk6GJQsqaUBKTNV-1" vertex="1">
          <mxGeometry x="786" y="180" width="240" height="70" as="geometry">
            <mxRectangle x="340" y="380" width="170" height="26" as="alternateBounds" />
          </mxGeometry>
        </mxCell>
        <mxCell id="w5kWeoBQfcNdfBbSgqj2-24" value="" style="line;html=1;strokeWidth=1;align=left;verticalAlign=middle;spacingTop=-1;spacingLeft=3;spacingRight=3;rotatable=0;labelPosition=right;points=[];portConstraint=eastwest;" parent="w5kWeoBQfcNdfBbSgqj2-23" vertex="1">
          <mxGeometry y="26" width="240" height="10" as="geometry" />
        </mxCell>
        <mxCell id="w5kWeoBQfcNdfBbSgqj2-25" value="&lt;span style=&quot;font-style: normal&quot;&gt;+&lt;/span&gt;getInput&lt;span style=&quot;font-style: normal&quot;&gt;(): returns input&lt;/span&gt;" style="text;align=left;verticalAlign=top;spacingLeft=4;spacingRight=4;overflow=hidden;rotatable=0;points=[[0,0.5],[1,0.5]];portConstraint=eastwest;fontStyle=2;html=1;" parent="w5kWeoBQfcNdfBbSgqj2-23" vertex="1">
          <mxGeometry y="36" width="240" height="24" as="geometry" />
        </mxCell>
        <mxCell id="w5kWeoBQfcNdfBbSgqj2-26" value="KBController" style="swimlane;fontStyle=0;align=center;verticalAlign=top;childLayout=stackLayout;horizontal=1;startSize=26;horizontalStack=0;resizeParent=1;resizeLast=0;collapsible=1;marginBottom=0;rounded=0;shadow=0;strokeWidth=1;" parent="WIyWlLk6GJQsqaUBKTNV-1" vertex="1">
          <mxGeometry x="796" y="320" width="240" height="80" as="geometry">
            <mxRectangle x="1450" y="610" width="170" height="26" as="alternateBounds" />
          </mxGeometry>
        </mxCell>
        <mxCell id="w5kWeoBQfcNdfBbSgqj2-27" value="" style="line;html=1;strokeWidth=1;align=left;verticalAlign=middle;spacingTop=-1;spacingLeft=3;spacingRight=3;rotatable=0;labelPosition=right;points=[];portConstraint=eastwest;" parent="w5kWeoBQfcNdfBbSgqj2-26" vertex="1">
          <mxGeometry y="26" width="240" height="14" as="geometry" />
        </mxCell>
        <mxCell id="w5kWeoBQfcNdfBbSgqj2-28" value="+ getInput(): gets input at a fixed tick speed" style="text;align=left;verticalAlign=top;spacingLeft=4;spacingRight=4;overflow=hidden;rotatable=0;points=[[0,0.5],[1,0.5]];portConstraint=eastwest;html=1;" parent="w5kWeoBQfcNdfBbSgqj2-26" vertex="1">
          <mxGeometry y="40" width="240" height="40" as="geometry" />
        </mxCell>
        <mxCell id="w5kWeoBQfcNdfBbSgqj2-32" style="edgeStyle=orthogonalEdgeStyle;rounded=0;orthogonalLoop=1;jettySize=auto;html=1;exitX=1.03;exitY=0.224;exitDx=0;exitDy=0;entryX=0;entryY=0.5;entryDx=0;entryDy=0;endArrow=diamond;endFill=0;exitPerimeter=0;startArrow=classic;startFill=1;" parent="WIyWlLk6GJQsqaUBKTNV-1" source="w5kWeoBQfcNdfBbSgqj2-19" target="w5kWeoBQfcNdfBbSgqj2-1" edge="1">
          <mxGeometry relative="1" as="geometry" />
        </mxCell>
        <mxCell id="w5kWeoBQfcNdfBbSgqj2-33" style="edgeStyle=orthogonalEdgeStyle;rounded=0;orthogonalLoop=1;jettySize=auto;html=1;endArrow=diamond;endFill=0;exitX=0;exitY=0.25;exitDx=0;exitDy=0;startArrow=classic;startFill=1;" parent="WIyWlLk6GJQsqaUBKTNV-1" source="w5kWeoBQfcNdfBbSgqj2-23" target="w5kWeoBQfcNdfBbSgqj2-1" edge="1">
          <mxGeometry relative="1" as="geometry" />
        </mxCell>
        <mxCell id="w5kWeoBQfcNdfBbSgqj2-35" style="edgeStyle=orthogonalEdgeStyle;rounded=0;orthogonalLoop=1;jettySize=auto;html=1;entryX=0.5;entryY=1;entryDx=0;entryDy=0;endArrow=block;endFill=0;exitX=0.457;exitY=0.007;exitDx=0;exitDy=0;exitPerimeter=0;" parent="WIyWlLk6GJQsqaUBKTNV-1" source="w5kWeoBQfcNdfBbSgqj2-26" target="w5kWeoBQfcNdfBbSgqj2-23" edge="1">
          <mxGeometry relative="1" as="geometry" />
        </mxCell>
        <mxCell id="w5kWeoBQfcNdfBbSgqj2-42" style="edgeStyle=orthogonalEdgeStyle;rounded=0;orthogonalLoop=1;jettySize=auto;html=1;entryX=0;entryY=0.25;entryDx=0;entryDy=0;endArrow=block;endFill=0;" parent="WIyWlLk6GJQsqaUBKTNV-1" source="w5kWeoBQfcNdfBbSgqj2-38" target="w5kWeoBQfcNdfBbSgqj2-19" edge="1">
          <mxGeometry relative="1" as="geometry" />
        </mxCell>
        <mxCell id="w5kWeoBQfcNdfBbSgqj2-38" value="TermView" style="swimlane;fontStyle=0;align=center;verticalAlign=top;childLayout=stackLayout;horizontal=1;startSize=26;horizontalStack=0;resizeParent=1;resizeLast=0;collapsible=1;marginBottom=0;rounded=0;shadow=0;strokeWidth=1;html=1;" parent="WIyWlLk6GJQsqaUBKTNV-1" vertex="1">
          <mxGeometry x="20" y="320" width="240" height="188" as="geometry">
            <mxRectangle x="1450" y="610" width="170" height="26" as="alternateBounds" />
          </mxGeometry>
        </mxCell>
        <mxCell id="VepE9303s8qAp5bbBbqC-1" value="&lt;span style=&quot;font-style: normal&quot;&gt;# render(Environment)&lt;br&gt;# render(GameObject)&lt;br&gt;&lt;/span&gt;" style="text;align=left;verticalAlign=top;spacingLeft=4;spacingRight=4;overflow=hidden;rotatable=0;points=[[0,0.5],[1,0.5]];portConstraint=eastwest;fontStyle=2;html=1;" vertex="1" parent="w5kWeoBQfcNdfBbSgqj2-38">
          <mxGeometry y="26" width="240" height="44" as="geometry" />
        </mxCell>
        <mxCell id="w5kWeoBQfcNdfBbSgqj2-40" value="" style="line;html=1;strokeWidth=1;align=left;verticalAlign=middle;spacingTop=-1;spacingLeft=3;spacingRight=3;rotatable=0;labelPosition=right;points=[];portConstraint=eastwest;" parent="w5kWeoBQfcNdfBbSgqj2-38" vertex="1">
          <mxGeometry y="70" width="240" height="14" as="geometry" />
        </mxCell>
        <mxCell id="w5kWeoBQfcNdfBbSgqj2-41" value="&lt;span style=&quot;font-style: normal&quot;&gt;+display(State):&amp;nbsp; calls the render methods&lt;br&gt;first on the environment, then on the&lt;br&gt;gameobjects, which are sorted in order of&lt;br&gt;height. Then, renders the player, and&amp;nbsp;&lt;br&gt;finally the status lines.&lt;br&gt;&lt;/span&gt;" style="text;align=left;verticalAlign=top;spacingLeft=4;spacingRight=4;overflow=hidden;rotatable=0;points=[[0,0.5],[1,0.5]];portConstraint=eastwest;fontStyle=2;html=1;" parent="w5kWeoBQfcNdfBbSgqj2-38" vertex="1">
          <mxGeometry y="84" width="240" height="104" as="geometry" />
        </mxCell>
        <mxCell id="w5kWeoBQfcNdfBbSgqj2-78" style="edgeStyle=orthogonalEdgeStyle;rounded=0;orthogonalLoop=1;jettySize=auto;html=1;endArrow=diamond;endFill=0;startArrow=classic;startFill=1;exitX=-0.014;exitY=0.057;exitDx=0;exitDy=0;entryX=1;entryY=0.736;entryDx=0;entryDy=0;entryPerimeter=0;exitPerimeter=0;" parent="WIyWlLk6GJQsqaUBKTNV-1" source="w5kWeoBQfcNdfBbSgqj2-75" target="w5kWeoBQfcNdfBbSgqj2-49" edge="1">
          <mxGeometry relative="1" as="geometry">
            <Array as="points">
              <mxPoint x="756" y="461" />
              <mxPoint x="756" y="373" />
            </Array>
          </mxGeometry>
        </mxCell>
        <mxCell id="w5kWeoBQfcNdfBbSgqj2-43" value="State" style="swimlane;fontStyle=0;align=center;verticalAlign=top;childLayout=stackLayout;horizontal=1;startSize=26;horizontalStack=0;resizeParent=1;resizeLast=0;collapsible=1;marginBottom=0;rounded=0;shadow=0;strokeWidth=1;" parent="WIyWlLk6GJQsqaUBKTNV-1" vertex="1">
          <mxGeometry x="456" y="300" width="240" height="240" as="geometry">
            <mxRectangle x="1450" y="610" width="170" height="26" as="alternateBounds" />
          </mxGeometry>
        </mxCell>
        <mxCell id="w5kWeoBQfcNdfBbSgqj2-49" value="- environment: Environment&#xa;- entities: List of GameObjects&#xa;- globals : Hashmap&#xa;- player: GameObject" style="text;align=left;verticalAlign=top;spacingLeft=4;spacingRight=4;overflow=hidden;rotatable=0;points=[[0,0.5],[1,0.5]];portConstraint=eastwest;" parent="w5kWeoBQfcNdfBbSgqj2-43" vertex="1">
          <mxGeometry y="26" width="240" height="64" as="geometry" />
        </mxCell>
        <mxCell id="w5kWeoBQfcNdfBbSgqj2-45" value="" style="line;html=1;strokeWidth=1;align=left;verticalAlign=middle;spacingTop=-1;spacingLeft=3;spacingRight=3;rotatable=0;labelPosition=right;points=[];portConstraint=eastwest;" parent="w5kWeoBQfcNdfBbSgqj2-43" vertex="1">
          <mxGeometry y="90" width="240" height="14" as="geometry" />
        </mxCell>
        <mxCell id="w5kWeoBQfcNdfBbSgqj2-67" value="+ &lt;span style=&quot;font-style: normal&quot;&gt;next&amp;nbsp;&lt;/span&gt;&lt;span style=&quot;font-style: normal&quot;&gt;(Input): called by the model runtime&lt;/span&gt;&amp;nbsp;&lt;br&gt;+ &lt;span style=&quot;font-style: normal&quot;&gt;stop(): prevent further state updates&lt;/span&gt;&lt;br&gt;+ &lt;span style=&quot;font-style: normal&quot;&gt;spawnObjects&lt;/span&gt;&lt;span style=&quot;font-style: normal&quot;&gt;(GameObjects):&lt;br&gt;+ destroyObjects&lt;/span&gt;&lt;span style=&quot;font-style: normal&quot;&gt;(GameObjects):&amp;nbsp;&lt;br&gt;&lt;span style=&quot;white-space: pre&quot;&gt;+ getFreeId(): get a unique GameObject&lt;br/&gt;&lt;/span&gt;&lt;span style=&quot;white-space: pre&quot;&gt;	&lt;/span&gt;Id to assign to a new GameObject&lt;br&gt;+ &lt;/span&gt;renderStatus()&lt;span style=&quot;font-style: normal&quot;&gt;: user defines how the&lt;br&gt;&lt;span style=&quot;white-space: pre&quot;&gt;	&lt;/span&gt;status lines are rendered.&lt;br&gt;&lt;/span&gt;" style="text;align=left;verticalAlign=top;spacingLeft=4;spacingRight=4;overflow=hidden;rotatable=0;points=[[0,0.5],[1,0.5]];portConstraint=eastwest;fontStyle=2;html=1;" parent="w5kWeoBQfcNdfBbSgqj2-43" vertex="1">
          <mxGeometry y="104" width="240" height="136" as="geometry" />
        </mxCell>
        <mxCell id="w5kWeoBQfcNdfBbSgqj2-57" value="Environment" style="swimlane;fontStyle=0;align=center;verticalAlign=top;childLayout=stackLayout;horizontal=1;startSize=26;horizontalStack=0;resizeParent=1;resizeLast=0;collapsible=1;marginBottom=0;rounded=0;shadow=0;strokeWidth=1;" parent="WIyWlLk6GJQsqaUBKTNV-1" vertex="1">
          <mxGeometry x="176" y="560" width="240" height="130" as="geometry">
            <mxRectangle x="1450" y="610" width="170" height="26" as="alternateBounds" />
          </mxGeometry>
        </mxCell>
        <mxCell id="w5kWeoBQfcNdfBbSgqj2-103" value="-prefab: Prefab&#xa;-dims: tuple&#xa;-viewport: tuple (top left coords)&#xa;# state: Concrete State" style="text;align=left;verticalAlign=top;spacingLeft=4;spacingRight=4;overflow=hidden;rotatable=0;points=[[0,0.5],[1,0.5]];portConstraint=eastwest;" parent="w5kWeoBQfcNdfBbSgqj2-57" vertex="1">
          <mxGeometry y="26" width="240" height="64" as="geometry" />
        </mxCell>
        <mxCell id="w5kWeoBQfcNdfBbSgqj2-59" value="" style="line;html=1;strokeWidth=1;align=left;verticalAlign=middle;spacingTop=-1;spacingLeft=3;spacingRight=3;rotatable=0;labelPosition=right;points=[];portConstraint=eastwest;" parent="w5kWeoBQfcNdfBbSgqj2-57" vertex="1">
          <mxGeometry y="90" width="240" height="14" as="geometry" />
        </mxCell>
        <mxCell id="w5kWeoBQfcNdfBbSgqj2-105" value="+ &lt;i&gt;update&lt;/i&gt;(Input):" style="text;align=left;verticalAlign=top;spacingLeft=4;spacingRight=4;overflow=hidden;rotatable=0;points=[[0,0.5],[1,0.5]];portConstraint=eastwest;html=1;" parent="w5kWeoBQfcNdfBbSgqj2-57" vertex="1">
          <mxGeometry y="104" width="240" height="24" as="geometry" />
        </mxCell>
        <mxCell id="w5kWeoBQfcNdfBbSgqj2-72" style="edgeStyle=orthogonalEdgeStyle;rounded=0;orthogonalLoop=1;jettySize=auto;html=1;endArrow=diamond;endFill=0;exitX=0.5;exitY=0;exitDx=0;exitDy=0;startArrow=classic;startFill=1;entryX=0;entryY=0.5;entryDx=0;entryDy=0;" parent="WIyWlLk6GJQsqaUBKTNV-1" source="w5kWeoBQfcNdfBbSgqj2-57" target="w5kWeoBQfcNdfBbSgqj2-49" edge="1">
          <mxGeometry relative="1" as="geometry">
            <mxPoint x="626" y="635" as="targetPoint" />
            <Array as="points">
              <mxPoint x="306" y="358" />
            </Array>
          </mxGeometry>
        </mxCell>
        <mxCell id="w5kWeoBQfcNdfBbSgqj2-75" value="GameObject" style="swimlane;fontStyle=0;align=center;verticalAlign=top;childLayout=stackLayout;horizontal=1;startSize=26;horizontalStack=0;resizeParent=1;resizeLast=0;collapsible=1;marginBottom=0;rounded=0;shadow=0;strokeWidth=1;" parent="WIyWlLk6GJQsqaUBKTNV-1" vertex="1">
          <mxGeometry x="796" y="450" width="240" height="190" as="geometry">
            <mxRectangle x="1450" y="610" width="170" height="26" as="alternateBounds" />
          </mxGeometry>
        </mxCell>
        <mxCell id="w5kWeoBQfcNdfBbSgqj2-76" value="- id : Integer&#xa;- height: Integer&#xa;- position: Tuple&#xa;- prefab: Prefab&#xa;- collider: Collider&#xa;# state : Concrete State &#xa;" style="text;align=left;verticalAlign=top;spacingLeft=4;spacingRight=4;overflow=hidden;rotatable=0;points=[[0,0.5],[1,0.5]];portConstraint=eastwest;" parent="w5kWeoBQfcNdfBbSgqj2-75" vertex="1">
          <mxGeometry y="26" width="240" height="94" as="geometry" />
        </mxCell>
        <mxCell id="w5kWeoBQfcNdfBbSgqj2-77" value="" style="line;html=1;strokeWidth=1;align=left;verticalAlign=middle;spacingTop=-1;spacingLeft=3;spacingRight=3;rotatable=0;labelPosition=right;points=[];portConstraint=eastwest;" parent="w5kWeoBQfcNdfBbSgqj2-75" vertex="1">
          <mxGeometry y="120" width="240" height="14" as="geometry" />
        </mxCell>
        <mxCell id="w5kWeoBQfcNdfBbSgqj2-106" value="+ &lt;i&gt;update&lt;/i&gt;(Input):&lt;br&gt;+ &lt;i&gt;Collide&lt;/i&gt;(GameObject):&lt;br&gt;+ &lt;i&gt;onCollision&lt;/i&gt;(GameObject):" style="text;align=left;verticalAlign=top;spacingLeft=4;spacingRight=4;overflow=hidden;rotatable=0;points=[[0,0.5],[1,0.5]];portConstraint=eastwest;html=1;" parent="w5kWeoBQfcNdfBbSgqj2-75" vertex="1">
          <mxGeometry y="134" width="240" height="56" as="geometry" />
        </mxCell>
        <mxCell id="VepE9303s8qAp5bbBbqC-10" style="edgeStyle=orthogonalEdgeStyle;rounded=0;orthogonalLoop=1;jettySize=auto;html=1;entryX=0.5;entryY=1;entryDx=0;entryDy=0;entryPerimeter=0;startArrow=none;startFill=0;endArrow=block;endFill=0;" edge="1" parent="WIyWlLk6GJQsqaUBKTNV-1" source="w5kWeoBQfcNdfBbSgqj2-81" target="w5kWeoBQfcNdfBbSgqj2-67">
          <mxGeometry relative="1" as="geometry" />
        </mxCell>
        <mxCell id="w5kWeoBQfcNdfBbSgqj2-81" value="Concrete State" style="swimlane;fontStyle=0;align=center;verticalAlign=top;childLayout=stackLayout;horizontal=1;startSize=26;horizontalStack=0;resizeParent=1;resizeLast=0;collapsible=1;marginBottom=0;rounded=0;shadow=0;strokeWidth=1;" parent="WIyWlLk6GJQsqaUBKTNV-1" vertex="1">
          <mxGeometry x="456" y="630" width="240" height="40" as="geometry">
            <mxRectangle x="1450" y="610" width="170" height="26" as="alternateBounds" />
          </mxGeometry>
        </mxCell>
        <mxCell id="w5kWeoBQfcNdfBbSgqj2-83" value="" style="line;html=1;strokeWidth=1;align=left;verticalAlign=middle;spacingTop=-1;spacingLeft=3;spacingRight=3;rotatable=0;labelPosition=right;points=[];portConstraint=eastwest;" parent="w5kWeoBQfcNdfBbSgqj2-81" vertex="1">
          <mxGeometry y="26" width="240" height="14" as="geometry" />
        </mxCell>
        <mxCell id="w5kWeoBQfcNdfBbSgqj2-101" style="edgeStyle=orthogonalEdgeStyle;rounded=0;orthogonalLoop=1;jettySize=auto;html=1;startArrow=none;startFill=0;endArrow=block;endFill=0;" parent="WIyWlLk6GJQsqaUBKTNV-1" source="w5kWeoBQfcNdfBbSgqj2-98" edge="1">
          <mxGeometry relative="1" as="geometry">
            <mxPoint x="296" y="690" as="targetPoint" />
          </mxGeometry>
        </mxCell>
        <mxCell id="w5kWeoBQfcNdfBbSgqj2-102" style="edgeStyle=orthogonalEdgeStyle;rounded=0;orthogonalLoop=1;jettySize=auto;html=1;entryX=0.5;entryY=1;entryDx=0;entryDy=0;startArrow=diamond;startFill=0;endArrow=classic;endFill=1;exitX=1;exitY=0.25;exitDx=0;exitDy=0;" parent="WIyWlLk6GJQsqaUBKTNV-1" source="w5kWeoBQfcNdfBbSgqj2-98" target="w5kWeoBQfcNdfBbSgqj2-81" edge="1">
          <mxGeometry relative="1" as="geometry">
            <mxPoint x="256" y="1030" as="sourcePoint" />
            <Array as="points">
              <mxPoint x="576" y="800" />
            </Array>
          </mxGeometry>
        </mxCell>
        <mxCell id="w5kWeoBQfcNdfBbSgqj2-98" value="Concrete Environment" style="swimlane;fontStyle=0;align=center;verticalAlign=top;childLayout=stackLayout;horizontal=1;startSize=26;horizontalStack=0;resizeParent=1;resizeLast=0;collapsible=1;marginBottom=0;rounded=0;shadow=0;strokeWidth=1;" parent="WIyWlLk6GJQsqaUBKTNV-1" vertex="1">
          <mxGeometry x="176" y="790" width="240" height="40" as="geometry">
            <mxRectangle x="1450" y="610" width="170" height="26" as="alternateBounds" />
          </mxGeometry>
        </mxCell>
        <mxCell id="w5kWeoBQfcNdfBbSgqj2-99" value="" style="line;html=1;strokeWidth=1;align=left;verticalAlign=middle;spacingTop=-1;spacingLeft=3;spacingRight=3;rotatable=0;labelPosition=right;points=[];portConstraint=eastwest;" parent="w5kWeoBQfcNdfBbSgqj2-98" vertex="1">
          <mxGeometry y="26" width="240" height="14" as="geometry" />
        </mxCell>
        <mxCell id="w5kWeoBQfcNdfBbSgqj2-111" style="edgeStyle=orthogonalEdgeStyle;rounded=0;orthogonalLoop=1;jettySize=auto;html=1;entryX=0.5;entryY=1;entryDx=0;entryDy=0;startArrow=none;startFill=0;endArrow=block;endFill=0;" parent="WIyWlLk6GJQsqaUBKTNV-1" source="w5kWeoBQfcNdfBbSgqj2-107" target="w5kWeoBQfcNdfBbSgqj2-75" edge="1">
          <mxGeometry relative="1" as="geometry" />
        </mxCell>
        <mxCell id="w5kWeoBQfcNdfBbSgqj2-112" style="edgeStyle=orthogonalEdgeStyle;rounded=0;orthogonalLoop=1;jettySize=auto;html=1;entryX=1;entryY=0.25;entryDx=0;entryDy=0;startArrow=diamond;startFill=0;endArrow=classic;endFill=1;" parent="WIyWlLk6GJQsqaUBKTNV-1" source="w5kWeoBQfcNdfBbSgqj2-107" target="w5kWeoBQfcNdfBbSgqj2-81" edge="1">
          <mxGeometry relative="1" as="geometry" />
        </mxCell>
        <mxCell id="w5kWeoBQfcNdfBbSgqj2-107" value="Concrete GameObject" style="swimlane;fontStyle=0;align=center;verticalAlign=top;childLayout=stackLayout;horizontal=1;startSize=26;horizontalStack=0;resizeParent=1;resizeLast=0;collapsible=1;marginBottom=0;rounded=0;shadow=0;strokeWidth=1;" parent="WIyWlLk6GJQsqaUBKTNV-1" vertex="1">
          <mxGeometry x="796" y="740" width="240" height="40" as="geometry">
            <mxRectangle x="1450" y="610" width="170" height="26" as="alternateBounds" />
          </mxGeometry>
        </mxCell>
        <mxCell id="w5kWeoBQfcNdfBbSgqj2-109" value="" style="line;html=1;strokeWidth=1;align=left;verticalAlign=middle;spacingTop=-1;spacingLeft=3;spacingRight=3;rotatable=0;labelPosition=right;points=[];portConstraint=eastwest;" parent="w5kWeoBQfcNdfBbSgqj2-107" vertex="1">
          <mxGeometry y="26" width="240" height="14" as="geometry" />
        </mxCell>
        <mxCell id="w5kWeoBQfcNdfBbSgqj2-113" value="Prefab" style="swimlane;fontStyle=0;align=center;verticalAlign=top;childLayout=stackLayout;horizontal=1;startSize=26;horizontalStack=0;resizeParent=1;resizeLast=0;collapsible=1;marginBottom=0;rounded=0;shadow=0;strokeWidth=1;" parent="WIyWlLk6GJQsqaUBKTNV-1" vertex="1">
          <mxGeometry x="176" y="880" width="240" height="74" as="geometry">
            <mxRectangle x="1450" y="610" width="170" height="26" as="alternateBounds" />
          </mxGeometry>
        </mxCell>
        <mxCell id="w5kWeoBQfcNdfBbSgqj2-114" value="#bitmap: Vector&#xa;#colors: Vector" style="text;align=left;verticalAlign=top;spacingLeft=4;spacingRight=4;overflow=hidden;rotatable=0;points=[[0,0.5],[1,0.5]];portConstraint=eastwest;" parent="w5kWeoBQfcNdfBbSgqj2-113" vertex="1">
          <mxGeometry y="26" width="240" height="34" as="geometry" />
        </mxCell>
        <mxCell id="w5kWeoBQfcNdfBbSgqj2-115" value="" style="line;html=1;strokeWidth=1;align=left;verticalAlign=middle;spacingTop=-1;spacingLeft=3;spacingRight=3;rotatable=0;labelPosition=right;points=[];portConstraint=eastwest;" parent="w5kWeoBQfcNdfBbSgqj2-113" vertex="1">
          <mxGeometry y="60" width="240" height="14" as="geometry" />
        </mxCell>
        <mxCell id="w5kWeoBQfcNdfBbSgqj2-117" value="Collider" style="swimlane;fontStyle=0;align=center;verticalAlign=top;childLayout=stackLayout;horizontal=1;startSize=26;horizontalStack=0;resizeParent=1;resizeLast=0;collapsible=1;marginBottom=0;rounded=0;shadow=0;strokeWidth=1;" parent="WIyWlLk6GJQsqaUBKTNV-1" vertex="1">
          <mxGeometry x="796" y="865" width="240" height="75" as="geometry">
            <mxRectangle x="1450" y="610" width="170" height="26" as="alternateBounds" />
          </mxGeometry>
        </mxCell>
        <mxCell id="w5kWeoBQfcNdfBbSgqj2-119" value="" style="line;html=1;strokeWidth=1;align=left;verticalAlign=middle;spacingTop=-1;spacingLeft=3;spacingRight=3;rotatable=0;labelPosition=right;points=[];portConstraint=eastwest;" parent="w5kWeoBQfcNdfBbSgqj2-117" vertex="1">
          <mxGeometry y="26" width="240" height="14" as="geometry" />
        </mxCell>
        <mxCell id="w5kWeoBQfcNdfBbSgqj2-125" value="+&lt;i&gt;&amp;nbsp;checkCollision&lt;/i&gt;(Collider): ." style="text;align=left;verticalAlign=top;spacingLeft=4;spacingRight=4;overflow=hidden;rotatable=0;points=[[0,0.5],[1,0.5]];portConstraint=eastwest;html=1;" parent="w5kWeoBQfcNdfBbSgqj2-117" vertex="1">
          <mxGeometry y="40" width="240" height="30" as="geometry" />
        </mxCell>
        <mxCell id="w5kWeoBQfcNdfBbSgqj2-126" style="edgeStyle=orthogonalEdgeStyle;rounded=0;orthogonalLoop=1;jettySize=auto;html=1;entryX=1;entryY=0.25;entryDx=0;entryDy=0;startArrow=diamond;startFill=0;endArrow=classic;endFill=1;" parent="WIyWlLk6GJQsqaUBKTNV-1" source="w5kWeoBQfcNdfBbSgqj2-76" target="w5kWeoBQfcNdfBbSgqj2-117" edge="1">
          <mxGeometry relative="1" as="geometry">
            <Array as="points">
              <mxPoint x="1096" y="523" />
              <mxPoint x="1096" y="903" />
            </Array>
          </mxGeometry>
        </mxCell>
        <mxCell id="w5kWeoBQfcNdfBbSgqj2-127" style="edgeStyle=orthogonalEdgeStyle;rounded=0;orthogonalLoop=1;jettySize=auto;html=1;startArrow=diamond;startFill=0;endArrow=classic;endFill=1;entryX=0.003;entryY=0.106;entryDx=0;entryDy=0;entryPerimeter=0;" parent="WIyWlLk6GJQsqaUBKTNV-1" edge="1" target="w5kWeoBQfcNdfBbSgqj2-113">
          <mxGeometry relative="1" as="geometry">
            <mxPoint x="172" y="893" as="targetPoint" />
            <Array as="points">
              <mxPoint x="106" y="629" />
              <mxPoint x="106" y="893" />
              <mxPoint x="172" y="893" />
            </Array>
            <mxPoint x="176" y="629" as="sourcePoint" />
          </mxGeometry>
        </mxCell>
        <mxCell id="w5kWeoBQfcNdfBbSgqj2-129" style="edgeStyle=orthogonalEdgeStyle;rounded=0;orthogonalLoop=1;jettySize=auto;html=1;entryX=0.999;entryY=0.092;entryDx=0;entryDy=0;entryPerimeter=0;startArrow=diamond;startFill=0;endArrow=classic;endFill=1;" parent="WIyWlLk6GJQsqaUBKTNV-1" source="w5kWeoBQfcNdfBbSgqj2-76" target="w5kWeoBQfcNdfBbSgqj2-113" edge="1">
          <mxGeometry relative="1" as="geometry">
            <Array as="points">
              <mxPoint x="776" y="523" />
              <mxPoint x="776" y="891" />
            </Array>
          </mxGeometry>
        </mxCell>
        <mxCell id="VepE9303s8qAp5bbBbqC-5" value="1" style="text;html=1;align=center;verticalAlign=middle;resizable=0;points=[];autosize=1;strokeColor=none;fillColor=none;" vertex="1" parent="WIyWlLk6GJQsqaUBKTNV-1">
          <mxGeometry x="436" y="130" width="20" height="20" as="geometry" />
        </mxCell>
        <mxCell id="VepE9303s8qAp5bbBbqC-6" value="1" style="text;html=1;align=center;verticalAlign=middle;resizable=0;points=[];autosize=1;strokeColor=none;fillColor=none;" vertex="1" parent="WIyWlLk6GJQsqaUBKTNV-1">
          <mxGeometry x="556" y="250" width="20" height="20" as="geometry" />
        </mxCell>
        <mxCell id="VepE9303s8qAp5bbBbqC-7" value="1" style="text;html=1;align=center;verticalAlign=middle;resizable=0;points=[];autosize=1;strokeColor=none;fillColor=none;" vertex="1" parent="WIyWlLk6GJQsqaUBKTNV-1">
          <mxGeometry x="736" y="120" width="20" height="20" as="geometry" />
        </mxCell>
        <mxCell id="VepE9303s8qAp5bbBbqC-8" value="1" style="text;html=1;align=center;verticalAlign=middle;resizable=0;points=[];autosize=1;strokeColor=none;fillColor=none;" vertex="1" parent="WIyWlLk6GJQsqaUBKTNV-1">
          <mxGeometry x="406" y="330" width="20" height="20" as="geometry" />
        </mxCell>
        <mxCell id="VepE9303s8qAp5bbBbqC-9" value="0...*" style="text;html=1;align=center;verticalAlign=middle;resizable=0;points=[];autosize=1;strokeColor=none;fillColor=none;" vertex="1" parent="WIyWlLk6GJQsqaUBKTNV-1">
          <mxGeometry x="706" y="345" width="40" height="20" as="geometry" />
        </mxCell>
        <mxCell id="VepE9303s8qAp5bbBbqC-11" value="1" style="text;html=1;align=center;verticalAlign=middle;resizable=0;points=[];autosize=1;strokeColor=none;fillColor=none;" vertex="1" parent="WIyWlLk6GJQsqaUBKTNV-1">
          <mxGeometry x="146" y="600" width="20" height="20" as="geometry" />
        </mxCell>
        <mxCell id="VepE9303s8qAp5bbBbqC-12" value="1" style="text;html=1;align=center;verticalAlign=middle;resizable=0;points=[];autosize=1;strokeColor=none;fillColor=none;" vertex="1" parent="WIyWlLk6GJQsqaUBKTNV-1">
          <mxGeometry x="1046" y="488" width="20" height="20" as="geometry" />
        </mxCell>
        <mxCell id="VepE9303s8qAp5bbBbqC-13" value="1" style="text;html=1;align=center;verticalAlign=middle;resizable=0;points=[];autosize=1;strokeColor=none;fillColor=none;" vertex="1" parent="WIyWlLk6GJQsqaUBKTNV-1">
          <mxGeometry x="766" y="490" width="20" height="20" as="geometry" />
        </mxCell>
      </root>
    </mxGraphModel>
  </diagram>
</mxfile>
